# xmcd CD database file
#
# Track frame offsets:
#	150
#	15847
#	31482
#	51386
#	65966
#	83598
#	97225
#	117087
#	133984
#	156918
#
# Disc length: 2289 seconds
#
# Revision: 0
# Processed by: cddbd v1.4PL0 Copyright (c) Steve Scherf et al.
# Submitted via: CDex 1.40Beta9
#
DISCID=8808ef0a
DTITLE=Tom Waits - The Heart of Saturday Night
DYEAR=1974
DGENRE=Blues
TTITLE0=New coat of paint
TTITLE1=San Diego serenade
TTITLE2=Semi suite
TTITLE3=Shiver me timbers
TTITLE4=Diamonds on my windshield (Looking for)
TTITLE5=The heart of saturday night
TTITLE6=Fumblin' with the blues
TTITLE7=Please call me, baby
TTITLE8=Depot, depot
TTITLE9=Drunk on the moon
EXTD=YEAR: 1974 ID3G: 0
EXTT0=
EXTT1=
EXTT2=
EXTT3=
EXTT4=
EXTT5=
EXTT6=
EXTT7=
EXTT8=
EXTT9=
PLAYORDER=
